PathFileType	4	(X/Y/Z)	/Users/itak/Documents/Research/Walk-IL/dataset/trc/00495_00183.trc
DataRate	CameraRate	NumFrames	NumMarkers	Units	OrigDataRate	OrigDataStartFrame	OrigNumFrames
100.000000	100.000000	4	53	mm	100.000000	623	713
Frame#	Time	RPSI			LPSI			L3			STRN			T10			C7			CLAV			RBAK			LBAK			LSHO			LUPA			LAEL			LAOL			LWTS			LWPS			LFRA			LIFD			LHPS			LHTS			RSHO			RUPA			RAEL			RAOL			RWTS			RWPS			RFRA			RIFD			RHTS			RHPS			RBHD			LFHD			RFHD			LBHD			LHIP			RHIP			RASI			LASI			LKNE			LTHI			LANK			LTIP			LTOE			LMT1			LMT5			LHEE			RKNE			RANK			RTIP			RTOE			RMT1			RMT5			RHEE			RTHI			
		X1	Y1	Z1	X2	Y2	Z2	X3	Y3	Z3	X4	Y4	Z4	X5	Y5	Z5	X6	Y6	Z6	X7	Y7	Z7	X8	Y8	Z8	X9	Y9	Z9	X10	Y10	Z10	X11	Y11	Z11	X12	Y12	Z12	X13	Y13	Z13	X14	Y14	Z14	X15	Y15	Z15	X16	Y16	Z16	X17	Y17	Z17	X18	Y18	Z18	X19	Y19	Z19	X20	Y20	Z20	X21	Y21	Z21	X22	Y22	Z22	X23	Y23	Z23	X24	Y24	Z24	X25	Y25	Z25	X26	Y26	Z26	X27	Y27	Z27	X28	Y28	Z28	X29	Y29	Z29	X30	Y30	Z30	X31	Y31	Z31	X32	Y32	Z32	X33	Y33	Z33	X34	Y34	Z34	X35	Y35	Z35	X36	Y36	Z36	X37	Y37	Z37	X38	Y38	Z38	X39	Y39	Z39	X40	Y40	Z40	X41	Y41	Z41	X42	Y42	Z42	X43	Y43	Z43	X44	Y44	Z44	X45	Y45	Z45	X46	Y46	Z46	X47	Y47	Z47	X48	Y48	Z48	X49	Y49	Z49	X50	Y50	Z50	X51	Y51	Z51	X52	Y52	Z52	X53	Y53	Z53	

624	6.23	395.8288269042969	978.9727783203125	306.144287109375	464.7947998046875	970.2139892578125	204.1229095458984	430.1083068847656	1047.044311523438	252.6634979248047	620.2005004882812	1200.04150390625	362.3014221191406	418.2615661621094	1151.335571289062	248.4325256347656	462.4495544433594	1379.629638671875	279.1656799316406	591.395751953125	1297.56982421875	349.7990417480469	372.2846374511719	1259.392456054688	325.3064880371094	480.8930358886719	1328.773315429688	187.6495971679688	601.2761840820312	1371.530639648438	171.95654296875	618.30322265625	1245.743286132812	110.8229370117188	632.9166259765625	1036.619384765625	85.53002166748047	534.0999755859375	1031.423950195312	100.8081893920898	688.3614501953125	855.4466552734375	166.4080657958984	648.9592895507812	818.3043823242188	89.93111419677734	651.9627685546875	963.3538818359375	93.44450378417969	694.1044921875	697.4418334960938	174.5273895263672	669.445068359375	765.3433227539062	106.431282043457	711.1124877929688	778.5432739257812	154.9521484375	436.2986755371094	1369.254028320312	435.5740661621094	390.6011657714844	1303.477783203125	476.0945739746094	353.1171569824219	1037.736450195312	511.8926391601562	324.5766296386719	1023.846618652344	452.6903076171875	451.2947387695312	838.717041015625	543.9827880859375	362.7055358886719	815.3909912109375	540.4240112304688	350.8378295898438	983.5717163085938	520.5836181640625	448.1380310058594	680.1988525390625	556.449951171875	450.67138671875	749.3582763671875	576.82763671875	382.685791015625	743.904052734375	558.7088012695312	444.1804809570312	1519.908203125	371.0414123535156	620.4445190429688	1598.359375	317.7183227539062	550.7786865234375	1590.2734375	423.75244140625	521.5623168945312	1525.456298828125	229.1651458740234	621.7393188476562	888.4013671875	157.2142028808594	414.2296447753906	887.4509887695312	475.7756958007812	532.3755493164062	927.3102416992188	470.2069396972656	661.131591796875	926.4505004882812	266.1816711425781	616.6371459960938	467.212158203125	240.4098510742188	638.2003173828125	623.5143432617188	209.4714660644531	520.742919921875	44.82353210449219	224.4307098388672	593.0069580078125	313.3494567871094	234.6316528320312	658.4546508789062	32.61289215087891	379.6605224609375	575.7340087890625	37.56222534179688	366.0230407714844	617.968017578125	39.72389984130859	272.7274475097656	448.6637878417969	41.21038436889648	255.7778778076172	459.2319641113281	499.9580993652344	482.0402221679688	312.1364135742188	85.00157928466797	441.9713745117188	442.2385864257812	357.1514282226562	480.223876953125	496.1235046386719	50.58605194091797	515.5038452148438	465.0167236328125	53.51709747314453	447.2441101074219	394.5031127929688	63.42210006713867	514.8189086914062	294.2415771484375	81.48203277587891	373.32666015625	441.0728759765625	758.2533569335938	498.4713745117188	
625	6.24	397.4102783203125	979.0565795898438	307.0839233398438	466.2888793945312	970.1624145507812	204.9436187744141	431.653076171875	1047.078491210938	253.5269775390625	621.9815673828125	1200.060302734375	362.8888854980469	419.8602294921875	1151.34130859375	249.2386016845703	464.18359375	1379.654663085938	279.8074951171875	593.148681640625	1297.592041015625	350.3770141601562	374.0102233886719	1259.427612304688	326.1245422363281	482.4606628417969	1328.747680664062	188.327392578125	602.8179931640625	1371.46826171875	172.4911193847656	619.8306274414062	1245.694702148438	111.3473434448242	634.7156372070312	1036.563110351562	86.15676879882812	535.9703979492188	1031.254760742188	101.4293441772461	690.5682983398438	855.7101440429688	167.3008270263672	651.4171142578125	818.3983154296875	90.79698181152344	653.9273681640625	963.4197998046875	94.14752960205078	696.8479614257812	697.7127685546875	175.5945892333984	672.0098876953125	765.5020141601562	107.3757629394531	713.5859985351562	778.8529663085938	155.9482879638672	438.1419067382812	1369.31103515625	436.2953796386719	392.4077453613281	1303.624633789062	476.8539123535156	354.0947265625	1037.994995117188	512.3670654296875	325.5649719238281	1024.22802734375	453.1216735839844	451.6244812011719	838.5780639648438	544.4069213867188	362.8792419433594	815.5834350585938	540.7578735351562	351.5938415527344	983.8418579101562	520.9993896484375	447.8320007324219	680.09619140625	556.8050537109375	450.6930541992188	749.245361328125	577.234375	382.6771240234375	744.0020751953125	559.03564453125	445.8098449707031	1519.8017578125	371.6537780761719	622.1136474609375	1598.412719726562	318.4688415527344	552.3827514648438	1590.176635742188	424.47900390625	523.257568359375	1525.521240234375	229.8434143066406	623.13720703125	888.2562866210938	157.9468383789062	415.920166015625	887.7091064453125	476.7514953613281	534.1248779296875	927.5177001953125	470.9926452636719	662.6064453125	926.3385620117188	266.8341674804688	617.4190063476562	467.0712280273438	240.8603973388672	639.2276611328125	623.3203125	210.0728607177734	520.7345581054688	44.84752655029297	224.4819946289062	593.46630859375	313.2550048828125	234.9635925292969	658.4779663085938	32.61828231811523	379.6641540527344	575.7291870117188	37.54703903198242	366.0433044433594	617.94140625	39.7227897644043	272.7684631347656	448.6591796875	41.25903701782227	255.7674865722656	460.5936279296875	500.1366882324219	483.1970825195312	322.0857849121094	81.60347747802734	446.3755798339844	446.2743835449219	356.7356567382812	482.1963195800781	507.4292602539062	51.78568649291992	518.808349609375	475.7592163085938	53.62367248535156	450.7547302246094	405.4741821289062	62.40618515014648	518.7216186523438	303.8067016601562	77.17246246337891	377.7799072265625	442.5878601074219	758.6652221679688	499.6408386230469	
626	6.25	398.9300231933594	979.1033325195312	308.0700073242188	467.7244873046875	970.1082153320312	205.8138122558594	433.1427612304688	1047.077392578125	254.4197387695312	623.7008666992188	1200.068603515625	363.478515625	421.3748474121094	1151.320678710938	250.068359375	465.8291625976562	1379.655029296875	280.4773864746094	594.8381958007812	1297.601928710938	350.9482727050781	375.66650390625	1259.436279296875	326.994873046875	483.9118041992188	1328.691040039062	189.0386047363281	604.2431030273438	1371.37939453125	173.0158233642578	621.2315063476562	1245.609252929688	111.8684234619141	636.3987426757812	1036.4853515625	86.7772216796875	537.7307739257812	1031.03759765625	102.1006851196289	692.7435302734375	855.947998046875	168.1253814697266	653.7455444335938	818.4578857421875	91.64103698730469	655.79638671875	963.4562377929688	94.84872436523438	699.5994262695312	697.9772338867188	176.5893707275391	674.4977416992188	765.645751953125	108.2778396606445	716.0220947265625	779.1405029296875	156.8489685058594	439.936767578125	1369.351806640625	437.0471496582031	394.1907958984375	1303.744750976562	477.660888671875	355.111328125	1038.2265625	512.9002075195312	326.5439453125	1024.598999023438	453.6348266601562	451.9148254394531	838.3770141601562	544.7925415039062	363.0147094726562	815.7503662109375	541.1368408203125	352.3924865722656	984.0883178710938	521.470458984375	447.5083312988281	679.9462280273438	557.1007690429688	450.6875610351562	749.0802612304688	577.5912475585938	382.6357116699219	744.0684204101562	559.371337890625	447.3693542480469	1519.665893554688	372.2759704589844	623.7171630859375	1598.4619140625	319.2301025390625	553.9142456054688	1590.049682617188	425.2176818847656	524.8660888671875	1525.56494140625	230.5365295410156	624.5361938476562	888.1280517578125	158.7274322509766	417.5241394042969	887.91748046875	477.7300720214844	535.8336791992188	927.6871948242188	471.8294982910156	664.0362548828125	926.2176513671875	267.5235290527344	618.1939697265625	466.9381408691406	241.34033203125	640.2059326171875	623.1302490234375	210.7056121826172	520.7236938476562	44.86682891845703	224.5290679931641	593.9395751953125	313.1774597167969	235.3031311035156	658.5101318359375	32.63087463378906	379.6729431152344	575.7255249023438	37.52761840820312	366.0589294433594	617.921142578125	39.71647644042969	272.8063354492188	448.6567687988281	41.29352951049805	255.7638244628906	461.8746337890625	500.257080078125	484.3490295410156	331.718505859375	78.48908233642578	450.5434875488281	450.1741943359375	356.3445434570312	484.1264038085938	518.235595703125	53.02003479003906	521.9033813476562	486.0545349121094	53.83662414550781	454.0450744628906	416.0150146484375	61.55353546142578	522.3917236328125	313.1371765136719	73.21856689453125	381.9651489257812	443.9287109375	759.0186157226562	500.8074645996094	
627	6.26	400.3944091796875	979.1112060546875	309.0938720703125	469.0987548828125	970.0450439453125	206.7339782714844	434.5730590820312	1047.04150390625	255.3437805175781	625.3577880859375	1200.064331054688	364.0733947753906	422.8030700683594	1151.2724609375	250.9327392578125	467.3840026855469	1379.629028320312	281.1813049316406	596.46630859375	1297.597900390625	351.5175170898438	377.2507629394531	1259.419189453125	327.9157409667969	485.2540283203125	1328.603515625	189.7816162109375	605.561767578125	1371.265014648438	173.5367584228516	622.5145263671875	1245.486450195312	112.3947296142578	637.9692993164062	1036.387084960938	87.3935546875	539.3724365234375	1030.774658203125	102.8261032104492	694.8812866210938	856.1600952148438	168.8829803466797	655.9421997070312	818.4808959960938	92.46401977539062	657.5700073242188	963.462890625	95.55201721191406	702.3292236328125	698.2304077148438	177.5050201416016	676.8984985351562	765.7698974609375	109.1367874145508	718.4108276367188	779.4053955078125	157.6575317382812	441.685791015625	1369.377807617188	437.82958984375	395.94677734375	1303.838134765625	478.5130310058594	356.1659545898438	1038.43115234375	513.4902954101562	327.5333862304688	1024.965698242188	454.2170104980469	452.1759033203125	838.1272583007812	545.1517333984375	363.1285400390625	815.8905639648438	541.5547485351562	353.2391662597656	984.3096313476562	521.9972534179688	447.181884765625	679.7518310546875	557.335205078125	450.6534118652344	748.8648071289062	577.898681640625	382.5724487304688	744.1078491210938	559.7030639648438	448.8619995117188	1519.503051757812	372.9132080078125	625.244384765625	1598.502075195312	320.0028686523438	555.3739624023438	1589.898071289062	425.9667053222656	526.3876953125	1525.581420898438	231.245849609375	625.9229125976562	888.0120239257812	159.5511627197266	419.0763549804688	888.07763671875	478.7213439941406	537.4889526367188	927.81884765625	472.7161865234375	665.4230346679688	926.087890625	268.2510681152344	618.9573364257812	466.8089904785156	241.843505859375	641.1466674804688	622.9509887695312	211.3711395263672	520.7100830078125	44.87989807128906	224.5700531005859	594.4210815429688	313.113037109375	235.6458892822266	658.5527954101562	32.65213394165039	379.6874389648438	575.7266235351562	37.50808715820312	366.0726013183594	617.9078979492188	39.70480728149414	272.8404541015625	448.6564331054688	41.31646728515625	255.7644500732422	463.1052551269531	500.3211059570312	485.4959106445312	340.9793395996094	75.65601348876953	454.4677124023438	453.9293212890625	355.9780883789062	486.0160827636719	528.4939575195312	54.24785995483398	524.7977294921875	495.84912109375	54.12434005737305	457.1241455078125	426.0675964355469	60.843505859375	525.8345336914062	322.1673278808594	69.62750244140625	385.8814086914062	445.1595153808594	759.3060302734375	501.9819946289062	
